<svg width="171" height="179" viewBox="0 0 171 179" fill="none" xmlns="http://www.w3.org/2000/svg">
<g style="mix-blend-mode:luminosity" opacity="0.5">
<mask id="mask0_22426_2186" style="mask-type:luminance" maskUnits="userSpaceOnUse" x="0" y="0" width="154" height="170">
<path d="M0 0H153.716V170H0V0Z" fill="white"/>
</mask>
<g mask="url(#mask0_22426_2186)">
<path d="M151.172 115.947C146.268 103.107 140.435 90.5463 134.834 78.0149C132.432 72.6385 130.242 67.1883 127.782 61.8359C126.969 60.0629 126.094 58.3175 125.29 56.5426C125.173 56.2861 125.059 56.0241 124.939 55.764C125.208 55.6311 125.472 55.5001 125.472 55.5001L125.022 54.5075L125.002 54.5186L119.159 41.4153H119.161L119.079 41.2363L118.718 40.4263L118.708 40.43V40.4282C118.708 40.4282 118.105 40.6902 117.906 40.7769C116.319 41.4614 114.692 42.0094 113.138 42.5979C108.363 44.4079 103.528 46.1385 99 48.5315C95.4723 50.3987 91.7196 51.7953 88.1273 53.5204C76.5904 59.0647 64.9446 64.2677 53.1937 69.3544C49.0018 71.168 44.7915 72.8784 40.6052 74.6902C37.6771 75.9577 34.8653 77.6644 31.8764 78.7658C29.4668 79.6533 27.1402 80.9411 24.8155 82.0389C24.0148 82.4171 23.0886 82.7603 22.3911 83.3175L22.3303 83.3655L21.1863 80.7049C26.5756 76.0869 31.655 71.0721 37.0535 66.4522C42.7362 61.5942 48.5185 56.8913 54.2841 52.1404C57.1679 49.7658 59.8432 47.1238 62.655 44.6607L64.2565 43.299C64.5978 43.0167 64.9391 42.7345 65.286 42.4596C70.2565 38.5352 75.6568 34.8083 80.3469 30.5592C85.8875 25.537 91.7472 20.6791 97.5609 15.9743C98.9446 14.8544 100.301 13.7068 101.679 12.5795C102.063 12.2658 102.897 11.4632 102.897 11.4632L102.216 10.7363L102.208 10.7437L100.863 9.30826L92.9594 0.869146L92.9631 0.865456L92.238 0.0942383C92.238 0.0942383 91.9834 0.372836 91.8911 0.450327C90.9557 1.2197 89.8948 1.83594 88.917 2.5518C84.6974 5.63483 80.6365 9.39313 76.7528 12.8876C71.9391 17.2197 66.7269 21.2548 61.69 25.3452C52.0258 33.1939 42.4299 41.1053 33.024 49.2603C25.7528 55.5647 17.8247 61.0149 10.6236 67.3784C8.30074 69.43 6.06089 71.5555 3.70111 73.561C2.94834 74.1976 2.24539 74.9227 1.41697 75.4614C1.14391 75.6404 0.869004 75.8691 0.583026 76.0278C0.516606 76.0555 0 76.3968 0 76.3968L0.625461 77.2695H0.627306L1.28967 78.2068C1.19188 78.2861 1.131 78.3876 1.10886 78.5112C1.08487 78.6367 1.10517 78.7529 1.16974 78.8618C1.85424 80.0389 2.84133 81.1053 3.65129 82.1994C5.61624 84.8599 7.58487 87.5131 9.55904 90.1551C9.62731 90.2474 9.71587 90.3083 9.82472 90.3396L10.155 91.2179C10.1384 91.2252 10.1218 91.2326 10.1052 91.2418C10.0461 91.2732 9.99446 91.3156 9.95018 91.3673C9.90775 91.4208 9.87638 91.4799 9.85609 91.5444C9.83579 91.6108 9.82841 91.6773 9.83579 91.7437C9.84133 91.812 9.86162 91.8765 9.89299 91.9356C11.0018 94.0149 11.7269 96.3433 12.5369 98.55C12.703 99.0001 12.8598 99.8083 13.0849 100.508C13.2196 101.004 13.452 101.448 13.7823 101.843C13.8339 101.895 13.8948 101.934 13.9649 101.961C14.0055 102.017 14.0554 102.063 14.1162 102.1C14.3284 102.207 14.5461 102.223 14.7712 102.148C14.9465 102.094 15.1144 102.026 15.2768 101.945L17.0332 106.061C17.0166 106.085 17.0018 106.109 16.9908 106.135C16.9428 106.255 16.9262 106.378 16.941 106.508C16.9926 106.832 17.0849 107.142 17.2196 107.441C17.4631 107.926 17.6513 108.441 17.8598 108.941C18.4649 110.402 19.1199 111.832 19.7583 113.279C21.6845 117.642 23.524 122.043 25.5129 126.378C29.5148 135.105 32.5683 144.26 36.5387 152.993C38.3358 156.943 39.4373 161.832 42.2731 165.234C42.3801 165.362 42.5185 165.423 42.6845 165.417C42.9631 165.989 43.2934 166.53 43.6753 167.039C43.7528 167.139 44.0221 167.513 44.3026 167.86C44.2601 167.941 44.2435 168.026 44.2509 168.118C44.2583 168.251 44.3081 168.364 44.4041 168.456C44.5424 168.629 44.7011 168.779 44.8819 168.906C45.2601 169.091 45.6384 169.277 46.0148 169.461C47.0037 169.943 48.2196 169.786 49.3044 169.777C52.4945 169.747 55.4797 167.937 58.428 166.924C58.5037 166.901 58.5683 166.86 58.6255 166.805C58.6808 166.749 58.7232 166.685 58.7491 166.609C58.7749 166.535 58.7823 166.458 58.7731 166.38C58.762 166.301 58.7362 166.229 58.6919 166.163C59.1863 165.956 59.679 165.749 60.1716 165.539C60.2399 165.655 60.3395 165.733 60.4705 165.77C60.6015 165.806 60.7269 165.795 60.8469 165.733C64.6771 163.751 68.9613 162.699 73.0517 161.341C79.024 159.362 84.7546 156.663 90.7066 154.613C95.6993 152.891 100.419 150.316 105.312 148.358C110.441 146.305 115.756 144.845 120.887 142.792C127.234 140.253 133.445 137.485 139.904 135.225C139.969 135.203 140.026 135.17 140.077 135.124C140.127 135.078 140.168 135.024 140.197 134.963C140.227 134.902 140.244 134.838 140.247 134.77C140.251 134.701 140.242 134.635 140.22 134.57C140.192 134.491 140.146 134.423 140.083 134.365L141.493 133.775C143.756 132.827 145.958 131.729 148.194 130.727C148.875 130.421 149.552 130.166 150.24 129.884C150.596 129.74 151.301 128.948 151.249 129.329C155.513 126.897 152.476 119.365 151.172 115.947Z" fill="#456188"/>
</g>
<path fill-rule="evenodd" clip-rule="evenodd" d="M14.8594 100.51C14.9205 100.559 15.7237 100.036 16.0217 99.8971C17.2746 99.3134 18.5517 98.7517 19.7639 98.0885C24.8202 95.321 30.3632 93.8154 35.5213 91.338C45.9781 86.3111 56.7829 81.783 67.4951 77.3252C70.684 75.9987 74.0709 75.2043 77.2561 73.8612C85.2384 70.4989 92.9561 66.4881 100.942 63.1443C106.891 60.6558 112.922 58.3317 118.811 55.7157C120.198 55.1005 121.639 54.6368 123.02 54.0013C123.19 53.9237 124.251 53.6189 124.271 53.4212C124.299 53.1293 124.567 53.9237 124.723 54.1731C125.054 54.7421 125.344 55.3315 125.596 55.9411C126.403 57.7202 127.28 59.466 128.097 61.2414C130.564 66.6008 132.76 72.06 135.17 77.4434C140.789 89.9912 146.639 102.569 151.559 115.425C152.867 118.85 155.915 126.389 151.635 128.826C151.686 128.446 150.979 129.238 150.624 129.382C149.932 129.665 149.253 129.92 148.57 130.227C146.327 131.23 144.119 132.331 141.848 133.278C135 136.144 128.197 138.965 121.275 141.597C114.479 144.182 107.631 146.665 100.816 149.24C95.8784 151.108 91.1553 153.515 86.1786 155.283C80.2432 157.391 74.2671 159.416 68.3835 161.675C63.727 163.462 59.2981 165.673 54.599 167.343C51.3491 168.498 48.4137 169.448 45.0842 168.095C45.0842 168.068 45.0731 168.082 45.0583 168.062C44.864 168.149 43.8868 166.791 43.7295 166.584C42.3988 164.859 41.9305 162.688 40.6942 160.951" fill="#456188"/>
<mask id="mask1_22426_2186" style="mask-type:luminance" maskUnits="userSpaceOnUse" x="0" y="4" width="136" height="138">
<path d="M0 4.6864H135.295V141.188H0V4.6864Z" fill="white"/>
</mask>
<g mask="url(#mask1_22426_2186)">
<path fill-rule="evenodd" clip-rule="evenodd" d="M80.6712 109.48C80.7229 109.679 80.7967 109.869 80.8889 110.052C81.21 110.692 81.8041 111.511 81.9793 111.88C82.8391 113.685 83.8151 115.454 84.6269 117.279C84.7635 117.585 84.8705 118.105 85.0199 118.554C85.103 118.814 85.2173 119.061 85.3631 119.293C78.7542 122.384 72.1528 125.491 65.4646 128.397C59.7303 130.889 53.9775 133.264 48.2709 135.83C46.4203 136.664 44.5624 137.469 42.7266 138.332C42.0882 138.633 41.4923 139.031 40.8723 139.375C40.6915 139.476 40.2653 139.592 40.0624 139.69C39.9443 139.745 39.8447 139.823 39.7653 139.924C39.638 140.087 39.6177 140.262 39.6989 140.45C39.7727 140.629 39.9019 140.742 40.0882 140.788C40.2026 140.823 40.3151 140.819 40.4258 140.775C40.5384 140.733 40.6233 140.659 40.6841 140.555C40.9185 140.474 41.1454 140.38 41.3705 140.275C41.9683 139.941 42.5439 139.555 43.1638 139.264C44.9941 138.402 46.8465 137.598 48.6915 136.769C54.3945 134.205 60.1417 131.83 65.8742 129.34C77.959 124.089 89.7635 118.181 101.846 112.899C104.514 111.731 107.086 110.314 109.8 109.258C112.631 108.159 115.586 107.358 118.404 106.255C122.588 104.618 126.736 102.893 130.917 101.244C131.885 100.862 132.846 100.448 133.834 100.12C134.179 100.03 134.511 99.9078 134.834 99.7565C135.048 99.6403 135.158 99.4613 135.168 99.2178C135.168 99.1089 135.136 99.0112 135.073 98.9208C135.011 98.8322 134.928 98.7695 134.824 98.7326C134.721 98.6975 134.618 98.6938 134.513 98.7233C134.407 98.7529 134.321 98.8101 134.252 98.8949L133.509 99.144C132.503 99.4798 131.525 99.8986 130.537 100.286C126.358 101.936 122.212 103.661 118.027 105.297C115.21 106.399 112.254 107.201 109.426 108.301C106.699 109.36 104.114 110.782 101.433 111.956C96.3594 114.174 91.3336 116.502 86.317 118.847C86.2985 118.821 86.2782 118.795 86.2561 118.773C86.09 118.541 85.9793 118.284 85.9258 118.006C85.8244 117.616 85.7044 117.236 85.5642 116.86C84.7487 115.028 83.769 113.251 82.9074 111.439C82.7524 111.114 82.2838 110.45 81.948 109.854C81.8576 109.699 81.7764 109.537 81.7081 109.371C81.686 109.312 81.6694 109.251 81.6546 109.188C81.6583 109.15 81.6583 109.113 81.6528 109.074C89.7875 105.731 97.9609 102.513 105.843 98.5757C110.87 96.0628 116.201 94.585 121.359 92.4134C123.083 91.6883 124.915 91.1366 126.588 90.3008C127.168 90.0112 127.804 89.8174 128.4 89.5628C128.544 89.4927 128.679 89.406 128.804 89.3064C128.856 89.2658 128.924 89.216 128.987 89.1698C129.011 89.1735 129.035 89.1754 129.059 89.1754C129.127 89.1754 129.192 89.1625 129.254 89.1348C129.317 89.1089 129.374 89.072 129.422 89.0241C129.47 88.9761 129.507 88.9208 129.533 88.858C129.559 88.7953 129.572 88.7289 129.572 88.6606C129.581 88.4798 129.518 88.3285 129.383 88.2067C129.276 88.1053 129.147 88.0536 128.998 88.0554C128.817 88.0702 128.655 88.1311 128.509 88.2399C128.346 88.3783 128.175 88.5038 127.994 88.6182C127.38 88.8802 126.725 89.0813 126.127 89.3802C124.474 90.2067 122.664 90.7492 120.959 91.4669C115.78 93.6458 110.43 95.1329 105.382 97.6569C95.4959 102.596 85.1491 106.399 75.0033 110.744C67.1694 114.1 59.4517 117.762 51.579 121.022C47.972 122.519 44.2635 123.978 40.7321 125.646C39.3188 126.312 37.8686 127.004 36.5107 127.779C36.3963 127.843 35.4166 128.386 35.3207 128.439C35.2819 128.454 35.245 128.472 35.2118 128.496C35.1565 128.535 35.1103 128.583 35.0734 128.64C35.0365 128.698 35.0107 128.76 34.9996 128.827C34.9867 128.895 34.9886 128.961 35.0033 129.028C35.0162 129.094 35.0439 129.155 35.0827 129.212C35.1638 129.316 35.2672 129.382 35.3963 129.412C35.5255 129.441 35.6472 129.426 35.7653 129.365C35.959 129.271 36.8945 128.742 37.0199 128.672C38.3557 127.908 39.7819 127.231 41.1712 126.574C44.6878 124.915 48.3816 123.461 51.9738 121.972C59.8502 118.709 67.5716 115.044 75.4074 111.688C77.1583 110.939 78.9129 110.203 80.6712 109.48ZM35.924 128.62C35.8373 128.489 35.7155 128.419 35.5587 128.408C35.7118 128.423 35.8354 128.495 35.924 128.62L35.9295 128.626C35.9277 128.624 35.9258 128.622 35.924 128.62ZM124.147 76.203C123.979 76.2529 123.26 76.4687 123.206 76.4872C121.954 76.9484 120.771 77.596 119.514 78.0499C116.974 78.9632 114.461 80.2676 112.027 81.441C109.594 82.6163 106.979 83.406 104.524 84.5333C91.2026 90.6477 77.5255 95.8082 63.972 101.349C58.7819 103.471 53.7155 105.867 48.4683 107.856C43.8244 109.614 39.3447 111.614 34.7745 113.517C33.6971 113.965 32.6786 114.495 31.579 114.886C31.2007 115.019 30.8354 115.177 30.4812 115.364C30.352 115.458 30.2782 115.581 30.2561 115.74C30.2432 115.847 30.2616 115.95 30.3133 116.046C30.365 116.142 30.4388 116.214 30.5365 116.264C30.6343 116.312 30.7376 116.328 30.8465 116.31C30.9535 116.293 31.0476 116.247 31.1251 116.172C31.3483 116.057 31.8483 115.882 31.9258 115.854C33.0421 115.456 34.0753 114.921 35.1712 114.465C39.7303 112.567 44.2007 110.574 48.8317 108.817C54.09 106.825 59.1638 104.426 64.3613 102.301C77.9277 96.7529 91.6196 91.5868 104.954 85.4669C107.417 84.3359 110.037 83.5444 112.476 82.3654C114.878 81.2086 117.358 79.9189 119.863 79.0167C121.123 78.5628 122.308 77.9134 123.562 77.4521C123.937 77.3617 124.304 77.2436 124.662 77.0997C124.775 77.0499 124.865 76.9743 124.933 76.8746C125.003 76.7731 125.042 76.6625 125.049 76.5407C125.049 76.4337 125.018 76.3359 124.957 76.2473C124.896 76.1606 124.817 76.0979 124.715 76.0591C124.616 76.0222 124.514 76.0148 124.409 76.0425C124.306 76.0684 124.219 76.1219 124.149 76.2012L124.147 76.203ZM31.2616 115.943C31.2653 115.93 31.269 115.917 31.2709 115.904C31.2727 115.893 31.2745 115.88 31.2764 115.869C31.2727 115.893 31.269 115.919 31.2616 115.943ZM27.9923 95.9171L15.9978 100.965L13.1103 99.0444L9.82436 90.3377L15.7247 87.7547L27.9923 95.9171ZM51.7081 85.9355L39.7137 90.9835L26.2672 82.037L37.948 76.7787L51.7081 85.9355ZM128.542 88.6883L128.551 88.7602C128.548 88.7363 128.544 88.7123 128.542 88.6883ZM128.542 88.6864V88.6606C128.542 88.6698 128.542 88.6772 128.542 88.6864ZM7.51624 70.5148L25.7247 76.0684L20.9406 80.1385L21.0126 80.3045L16.245 84.5167L2.8668 80.4355L0.160156 76.6071L7.51624 70.5148ZM75.424 75.954L63.4295 81.0019L49.3631 71.6403L61.0421 66.3839L75.424 75.954ZM124.02 76.5148C124.02 76.5185 124.02 76.5241 124.02 76.5278V76.5407V76.5148ZM99.1399 65.9724L87.1454 71.0204L72.459 61.2455L84.138 55.989L99.1399 65.9724ZM45.1269 59.5665L35.3151 67.9115L17.2948 62.4152L27.3022 54.1292L45.1269 59.5665ZM122.856 55.9909L110.861 61.0388L95.5531 50.8506L107.232 45.5942L122.856 55.9909ZM64.531 43.0647L54.7174 51.4097L37.0808 46.0296L47.0864 37.7436L64.531 43.0647ZM83.9332 26.5628L74.1196 34.9078L56.8668 29.644L66.8723 21.358L83.9332 26.5628ZM93.5236 18.406L76.6509 13.2584L86.6565 4.97241L100.861 9.30636L102.352 10.8968L93.5236 18.406Z" fill="#BDCBDD"/>
</g>
<path fill-rule="evenodd" clip-rule="evenodd" d="M58.0669 124.287C58.0483 124.271 58.0316 124.254 58.0167 124.238C57.9758 124.188 57.9405 124.139 57.907 124.086C57.7973 123.897 57.6653 123.727 57.5091 123.573C57.3473 123.429 57.1558 123.368 56.9382 123.392C56.7263 123.421 56.5496 123.513 56.4046 123.668C55.7241 124.34 55.1328 125.781 54.3909 126.883C54.0023 127.46 53.5876 127.956 53.0224 128.031C53.0001 128.033 52.987 128.011 52.9684 127.994C52.9331 127.959 52.9034 127.923 52.8755 127.883C52.7788 127.727 52.7044 127.564 52.6505 127.39C52.5017 126.907 52.4162 126.413 52.3976 125.909C52.3958 125.838 52.3976 125.752 52.4013 125.704C52.4441 125.611 52.4552 125.512 52.4367 125.411C52.4199 125.311 52.3734 125.223 52.3009 125.148C52.2303 125.074 52.1429 125.025 52.0406 125.003C51.9383 124.981 51.8398 124.988 51.7412 125.025C51.5609 125.093 51.4475 125.219 51.4028 125.404C51.3526 125.686 51.3452 125.97 51.3805 126.255C51.4437 126.995 51.6817 128.042 52.102 128.569C52.2191 128.739 52.3734 128.867 52.5631 128.952C52.7528 129.038 52.9517 129.067 53.1581 129.043C53.9911 128.933 54.6791 128.3 55.2555 127.447C55.8988 126.491 56.4027 125.252 56.981 124.564C57.0535 124.672 57.1409 124.798 57.2097 124.88C57.3176 125.027 57.4533 125.137 57.6188 125.213C57.7843 125.29 57.9591 125.32 58.1413 125.307C58.6805 125.241 59.1602 125.04 59.5786 124.699C59.9319 124.432 60.2535 124.104 60.5771 123.822C60.6273 123.776 60.6663 123.723 60.6961 123.663C60.724 123.603 60.7407 123.538 60.7444 123.473C60.7481 123.405 60.737 123.341 60.7147 123.277C60.6924 123.214 60.6589 123.158 60.6143 123.108C60.5678 123.057 60.5157 123.019 60.4544 122.989C60.393 122.96 60.3298 122.942 60.261 122.938C60.194 122.933 60.1271 122.942 60.062 122.962C59.9988 122.984 59.9412 123.017 59.8891 123.059C59.5823 123.326 59.2811 123.637 58.9464 123.89C58.6917 124.104 58.3979 124.236 58.0669 124.287ZM52.3548 125.788C52.3251 125.83 52.2898 125.867 52.2507 125.898C52.208 125.931 52.1615 125.957 52.1113 125.975C52.2172 125.942 52.2972 125.88 52.3548 125.788ZM64.5078 122.061C64.5618 122.021 64.6789 121.933 64.7812 121.869C65.1958 121.622 65.6272 121.408 66.0753 121.226C66.1422 121.206 66.2017 121.175 66.2557 121.131C66.3077 121.085 66.3505 121.034 66.3821 120.972C66.4137 120.912 66.4323 120.847 66.4379 120.78C66.4416 120.71 66.4342 120.644 66.4119 120.58C66.3895 120.514 66.3561 120.456 66.3096 120.404C66.265 120.353 66.211 120.313 66.1478 120.284C66.0865 120.253 66.0195 120.236 65.9507 120.232C65.8801 120.229 65.8131 120.238 65.7481 120.26C65.497 120.342 64.2773 120.906 63.8273 121.289C63.7176 121.371 63.6321 121.472 63.5763 121.596C63.5186 121.721 63.4963 121.849 63.5075 121.984C63.5279 122.1 63.5819 122.195 63.6693 122.274C63.7566 122.352 63.8589 122.394 63.9761 122.403C64.0951 122.413 64.2029 122.385 64.3014 122.323C64.4 122.259 64.4688 122.171 64.5078 122.061ZM57.2971 99.2902L56.9866 99.0943C56.7709 98.9643 56.5385 98.924 56.2893 98.9698C55.9844 99.0485 55.7464 99.2169 55.5753 99.4787L55.4042 99.7112C55.3782 99.6911 55.3522 99.6691 55.3336 99.6508C55.2555 99.5757 55.1718 99.5062 55.0844 99.4421C54.9282 99.3103 54.7479 99.2353 54.5415 99.2206C54.337 99.2041 54.1454 99.2481 53.9688 99.3542C53.6508 99.5208 53.2678 100.032 52.8978 100.513C52.842 100.586 52.7862 100.659 52.7286 100.727C52.7342 100.645 52.7397 100.564 52.7453 100.498C52.7806 100.238 52.7676 99.9821 52.7025 99.7277C52.6672 99.6197 52.6059 99.53 52.5185 99.4568C52.4311 99.3835 52.3307 99.3378 52.2172 99.3213C51.9532 99.2993 51.7412 99.3945 51.5813 99.6032C51.295 99.9986 51.0365 100.411 50.8022 100.837C50.4564 101.34 49.7666 102.417 48.9819 103.092C48.7792 103.277 48.5505 103.424 48.2958 103.528C48.1377 103.599 47.9741 103.607 47.8086 103.555C47.6543 103.501 47.6357 103.341 47.6171 103.177C47.5967 102.81 47.619 102.448 47.6822 102.087C47.751 101.727 47.7603 101.366 47.7157 101.004C47.6692 100.769 47.539 100.597 47.3233 100.489C47.2006 100.438 47.0742 100.429 46.944 100.465C46.8157 100.5 46.7116 100.572 46.6316 100.678C46.3564 101.015 45.1813 102.82 45.0716 102.966C44.6105 103.588 43.3665 105.146 42.2063 105.679C41.9664 105.822 41.708 105.86 41.4346 105.794C41.191 105.708 41.0107 105.463 40.8564 105.055C40.5849 104.344 40.7894 103.526 40.7894 102.794C40.7969 102.724 40.7913 102.657 40.7708 102.589C40.7522 102.521 40.7206 102.461 40.676 102.406C40.6332 102.349 40.5812 102.305 40.5179 102.269C40.4566 102.234 40.3915 102.212 40.3208 102.201C40.213 102.184 40.1107 102.201 40.014 102.25C39.9174 102.3 39.8448 102.371 39.7946 102.466C39.737 102.593 39.6924 102.723 39.6608 102.858C39.5827 103.151 39.4804 103.61 39.4042 103.821C39.1271 104.557 38.8036 105.269 38.4317 105.963C37.5076 107.705 36.4291 109.802 34.8933 111.07C34.8431 111.114 34.8003 111.165 34.7706 111.226C34.7389 111.284 34.7222 111.348 34.7166 111.414C34.7111 111.482 34.7185 111.546 34.7389 111.61C34.7594 111.674 34.7929 111.733 34.8356 111.784C34.8803 111.835 34.9323 111.876 34.9918 111.907C35.0513 111.938 35.1164 111.956 35.1833 111.964C35.2521 111.969 35.3172 111.964 35.3823 111.943C35.4474 111.925 35.5069 111.894 35.5608 111.852C37.1933 110.503 38.3685 108.288 39.3502 106.435C39.5325 106.091 39.7091 105.739 39.8727 105.381L39.8858 105.414C40.1833 106.193 40.6184 106.589 41.0832 106.755C41.6261 106.918 42.1468 106.869 42.6451 106.603C43.9578 106.001 45.3896 104.269 45.9102 103.566C45.9585 103.502 46.2616 103.056 46.5851 102.578C46.5387 102.979 46.5758 103.371 46.6948 103.757C46.8231 104.13 47.0779 104.383 47.4553 104.513C48.1693 104.769 48.9559 104.467 49.6643 103.859C50.5215 103.123 51.2857 101.956 51.6631 101.406L51.678 101.381C51.691 101.511 51.7264 101.633 51.7877 101.751C51.8974 101.952 52.0685 102.064 52.3009 102.082C52.7063 102.086 53.0372 101.935 53.2976 101.63C53.5932 101.297 53.8721 100.951 54.1324 100.59C54.2198 100.46 54.3277 100.346 54.456 100.253C54.4783 100.27 54.5173 100.297 54.5396 100.315C54.6233 100.39 54.7051 100.469 54.7906 100.537C55.0082 100.725 55.2611 100.808 55.5493 100.782C55.8022 100.746 56.0067 100.627 56.161 100.425C56.241 100.328 56.3191 100.209 56.4009 100.096C56.4288 100.059 56.4585 100.024 56.4901 99.9913C56.5143 100.004 56.5422 100.021 56.5608 100.033C56.6296 100.081 56.7021 100.13 56.7728 100.171C56.9141 100.266 57.0703 100.317 57.2413 100.326C57.4124 100.335 57.5742 100.301 57.7248 100.22C58.2175 99.9474 58.6229 99.5794 58.9427 99.1199C59.1714 98.7739 59.4503 98.4755 59.7794 98.2193C59.837 98.1826 59.8854 98.1351 59.9226 98.0801C59.9616 98.0234 59.9877 97.9611 60.0007 97.8952C60.0137 97.8293 60.0137 97.7634 60.0007 97.6957C59.9877 97.6298 59.9616 97.5694 59.9226 97.5126C59.8854 97.4559 59.837 97.4101 59.7794 97.3717C59.7236 97.3351 59.6604 97.3094 59.5935 97.2966C59.5265 97.282 59.4577 97.282 59.3908 97.2948C59.3239 97.3094 59.2606 97.3351 59.2048 97.3717C58.7809 97.6884 58.4183 98.0637 58.119 98.4975C57.9033 98.8197 57.6299 99.0851 57.2971 99.2902ZM73.0164 104.661C72.9904 104.601 72.9699 104.539 72.9513 104.474C72.8937 104.246 72.8528 104.004 72.7952 103.834C72.7282 103.598 72.5832 103.427 72.3582 103.323C72.1462 103.237 71.9454 103.255 71.752 103.378C71.382 103.625 71.0678 103.929 70.8112 104.288C70.4021 104.809 69.9707 105.468 69.5226 105.998C69.333 106.237 69.1154 106.444 68.8663 106.62C68.751 106.711 68.619 106.754 68.4702 106.746C68.4609 106.726 68.4516 106.708 68.446 106.686C68.4274 106.622 68.4163 106.558 68.4107 106.492C68.3884 106.278 68.3977 106.051 68.3884 105.868C68.3884 105.661 68.3382 105.465 68.2378 105.284C68.1448 105.139 68.0147 105.049 67.8436 105.014C67.626 104.974 67.4271 105.02 67.2486 105.154C66.9325 105.368 66.4974 105.988 66.3951 106.109C66.0549 106.508 64.8537 108.257 63.7901 108.978C63.6674 109.066 63.5335 109.135 63.3903 109.186C63.329 109.212 63.2676 109.219 63.2025 109.21C63.1412 109.194 63.1003 109.137 63.0538 109.064C62.9813 108.928 62.9274 108.787 62.8957 108.639C62.8307 108.381 62.9645 108.099 63.0371 107.835C63.1356 107.548 63.1579 107.253 63.1059 106.955C63.0891 106.889 63.0594 106.83 63.0185 106.777C62.9776 106.724 62.9274 106.68 62.8697 106.647C62.8121 106.613 62.7489 106.591 62.6819 106.582C62.615 106.571 62.548 106.574 62.483 106.591C62.416 106.605 62.3565 106.633 62.3007 106.673C62.2468 106.711 62.2003 106.759 62.165 106.816C62.1297 106.873 62.1055 106.935 62.0943 107.001C62.0832 107.067 62.0851 107.131 62.0999 107.197C62.1055 107.385 62.0683 107.565 61.9884 107.737C61.8545 108.108 61.821 108.491 61.8861 108.881C62.0962 109.723 62.5109 110.085 62.9367 110.195C63.3513 110.303 63.8589 110.17 64.3758 109.82C65.5175 109.047 66.8246 107.191 67.1891 106.765L67.375 106.543C67.3862 106.739 67.4289 106.929 67.4977 107.112C67.5572 107.275 67.6539 107.414 67.7878 107.528C67.9217 107.64 68.076 107.713 68.2489 107.744C68.5929 107.808 68.9183 107.757 69.2251 107.592C69.6528 107.35 70.0154 107.037 70.3166 106.653C70.774 106.115 71.2128 105.443 71.6293 104.914C71.726 104.791 71.8171 104.678 71.9082 104.577C71.925 104.648 71.9436 104.718 71.9584 104.777C72.1128 105.342 72.4512 105.734 72.9792 105.706C73.3604 105.653 73.697 105.5 73.987 105.249C74.6118 104.771 75.3686 103.909 76.0807 103.35C76.2704 103.189 76.4805 103.061 76.7129 102.966C76.7817 102.935 76.8542 102.924 76.9305 102.937C77.0011 102.964 77.0532 103.01 77.0904 103.074C77.1294 103.127 77.1796 103.171 77.2373 103.206C77.2949 103.241 77.3581 103.263 77.425 103.274C77.492 103.283 77.5589 103.281 77.6259 103.266C77.6909 103.25 77.7523 103.222 77.8081 103.184C77.862 103.145 77.9085 103.098 77.9438 103.041C77.981 102.984 78.0052 102.924 78.0163 102.858C78.0275 102.792 78.0275 102.726 78.0126 102.66C77.9977 102.596 77.9717 102.536 77.9327 102.481C77.3042 101.615 76.3931 101.802 75.4336 102.554C74.8182 103.037 74.1693 103.742 73.6003 104.24C73.4552 104.37 73.3009 104.487 73.1354 104.593C73.0982 104.619 73.0573 104.641 73.0164 104.661ZM97.3708 107.804V107.795C97.3708 107.727 97.3577 107.662 97.3317 107.599C97.3038 107.537 97.2666 107.482 97.2183 107.435C97.1699 107.385 97.1142 107.349 97.0509 107.323C96.9877 107.297 96.9208 107.284 96.852 107.284C96.7088 107.283 96.5861 107.332 96.4857 107.433C96.3518 107.572 96.3035 107.735 96.3388 107.922C96.415 108.357 96.5805 108.756 96.8353 109.121C96.9598 109.309 97.1235 109.454 97.3261 109.556C97.5288 109.657 97.7445 109.705 97.9713 109.694C98.3209 109.655 98.624 109.521 98.8843 109.289C99.4477 108.831 99.9925 107.658 100.589 106.722C100.738 106.475 100.911 106.246 101.11 106.036C101.183 105.959 101.262 105.893 101.352 105.836C101.372 105.869 101.391 105.904 101.406 105.935C101.478 106.087 101.551 106.263 101.632 106.431C101.867 106.918 102.201 107.33 102.668 107.438C102.942 107.497 103.207 107.473 103.466 107.363C104.764 106.862 105.922 105.507 106.869 104.548C107.006 104.409 107.276 104.035 107.557 103.759L107.575 103.742C107.683 103.958 107.802 104.169 107.932 104.374C107.975 104.427 108.027 104.469 108.086 104.502C108.148 104.535 108.211 104.555 108.28 104.562C108.349 104.57 108.416 104.564 108.481 104.546C108.548 104.526 108.607 104.496 108.661 104.454C108.715 104.41 108.758 104.361 108.791 104.301C108.825 104.242 108.845 104.18 108.853 104.112C108.86 104.044 108.854 103.978 108.836 103.914C108.815 103.848 108.786 103.79 108.743 103.737C108.644 103.618 108.423 103.069 108.261 102.854C108.137 102.671 107.962 102.572 107.737 102.561C107.452 102.582 107.207 102.688 106.997 102.878C106.686 103.18 106.396 103.501 106.125 103.837C105.271 104.701 104.258 105.961 103.087 106.413C103.027 106.446 102.962 106.455 102.893 106.441C102.828 106.408 102.778 106.36 102.743 106.298C102.624 106.115 102.523 105.921 102.443 105.719C102.345 105.465 102.209 105.231 102.036 105.018C101.943 104.912 101.83 104.837 101.694 104.793C101.56 104.749 101.422 104.744 101.285 104.777C100.712 104.901 100.173 105.454 99.7117 106.181C99.3733 106.713 99.0572 107.332 98.7449 107.837C98.6073 108.084 98.4343 108.306 98.2261 108.502C98.0866 108.615 97.9788 108.683 97.8765 108.676C97.7333 108.663 97.6627 108.515 97.5883 108.388C97.4935 108.203 97.421 108.008 97.3708 107.804ZM97.3057 108.042C97.2071 108.216 97.0547 108.304 96.852 108.304C96.9468 108.31 97.0361 108.289 97.1197 108.242C97.2016 108.194 97.2648 108.128 97.3057 108.042ZM112.449 100.868C112.551 101.375 112.742 101.743 113.055 101.939C113.36 102.115 113.685 102.161 114.027 102.078C114.096 102.065 114.157 102.042 114.215 102.003C114.273 101.967 114.321 101.921 114.36 101.866C114.399 101.811 114.427 101.749 114.44 101.683C114.455 101.617 114.457 101.551 114.444 101.485C114.433 101.417 114.407 101.357 114.369 101.3C114.332 101.243 114.286 101.196 114.23 101.157C114.174 101.119 114.111 101.091 114.044 101.077C113.977 101.064 113.91 101.062 113.843 101.073C113.739 101.093 113.665 101.11 113.611 101.077C113.574 101.053 113.562 101.005 113.544 100.958C113.508 100.863 113.482 100.767 113.466 100.669C113.453 100.603 113.427 100.54 113.388 100.486C113.35 100.429 113.302 100.381 113.244 100.345C113.189 100.306 113.125 100.282 113.058 100.268C112.992 100.255 112.923 100.255 112.856 100.268C112.789 100.282 112.726 100.306 112.67 100.345C112.612 100.381 112.564 100.429 112.527 100.486C112.488 100.54 112.462 100.603 112.449 100.669C112.436 100.735 112.436 100.8 112.449 100.868ZM84.3401 100.083C84.3104 100.065 84.2472 100.022 84.2118 99.995C84.1207 99.9236 84.0333 99.8485 83.9441 99.7918C83.7117 99.6233 83.4551 99.5757 83.1762 99.6471C82.8061 99.7625 82.4938 99.9657 82.239 100.255C81.9694 100.537 81.7463 100.892 81.4302 101.07C81.3707 101.102 81.3205 101.146 81.2796 101.199C81.2387 101.253 81.2108 101.313 81.1922 101.377C81.1754 101.441 81.1699 101.507 81.1792 101.573C81.1885 101.639 81.2089 101.701 81.2424 101.76C81.2759 101.818 81.3205 101.868 81.3725 101.908C81.4265 101.95 81.486 101.979 81.551 101.998C81.6161 102.016 81.6831 102.021 81.75 102.014C81.8188 102.007 81.882 101.988 81.9415 101.956C82.2948 101.721 82.5997 101.437 82.8563 101.104C82.9958 100.914 83.1706 100.764 83.3807 100.654C83.4439 100.703 83.5927 100.815 83.68 100.881C83.8176 100.994 83.9757 101.068 84.1542 101.099C84.3327 101.128 84.5056 101.112 84.6748 101.049C85.1731 100.832 85.6008 100.519 85.9559 100.11C86.233 99.7881 86.5435 99.5025 86.8894 99.2536C87.6461 98.7831 88.3267 98.8289 89.1467 98.6495C89.2136 98.6348 89.275 98.6092 89.3307 98.5689C89.3865 98.5305 89.433 98.4829 89.4702 98.4261C89.5055 98.3694 89.5316 98.3071 89.5427 98.2412C89.5539 98.1735 89.552 98.1076 89.5371 98.0417C89.5223 97.9758 89.4962 97.9154 89.4572 97.8605C89.4181 97.8055 89.3679 97.7598 89.3103 97.7232C89.2527 97.6866 89.1894 97.6628 89.1225 97.6518C89.0556 97.639 88.9886 97.6408 88.9217 97.6554C87.979 97.8605 87.2055 97.8495 86.3353 98.3895C85.9188 98.6842 85.5432 99.0229 85.2066 99.4037C84.9667 99.6911 84.6785 99.9162 84.3401 100.085V100.083ZM118.52 100.35C118.629 100.363 118.731 100.341 118.828 100.29C118.925 100.237 118.996 100.162 119.044 100.065C119.09 99.9657 119.105 99.865 119.087 99.757C119.068 99.6508 119.02 99.5593 118.942 99.4842C118.854 99.389 118.744 99.3304 118.614 99.3121C118.484 99.2938 118.363 99.3176 118.252 99.3835C118.138 99.4366 118.057 99.5208 118.004 99.6325C117.952 99.7442 117.943 99.8595 117.977 99.9766C118.01 100.096 118.077 100.191 118.181 100.26C118.283 100.332 118.397 100.361 118.521 100.35H118.52ZM118.229 100.224C118.267 100.259 118.309 100.288 118.356 100.31C118.397 100.33 118.441 100.343 118.488 100.346C118.389 100.33 118.304 100.29 118.229 100.224ZM70.8465 94.4995C70.8261 94.4336 70.8056 94.3603 70.7945 94.3017C70.748 94.0802 70.7145 93.8478 70.6662 93.6702C70.6122 93.3864 70.456 93.1778 70.1957 93.0459C70.0191 92.9746 69.8462 92.98 69.6751 93.0643C69.3516 93.2253 69.0875 93.4523 68.8849 93.7452C68.6078 94.1553 68.3605 94.58 68.143 95.023C67.9979 95.3177 67.8138 95.5887 67.5907 95.8321C67.4531 95.9896 67.2802 96.0683 67.0682 96.0683C66.9381 96.0646 66.8711 95.9511 66.8098 95.8431C66.6982 95.6271 66.622 95.3983 66.5811 95.1585L66.5364 94.8821C66.5773 94.7612 66.5718 94.6422 66.5216 94.5269C66.4714 94.4098 66.3895 94.3219 66.2743 94.267C66.1646 94.212 66.0511 94.1974 65.9321 94.2194C65.8131 94.2432 65.7127 94.2999 65.6328 94.3896C65.5324 94.5086 65.4859 94.6459 65.4877 94.7997C65.5008 94.9882 65.5249 95.175 65.564 95.3598C65.6384 95.79 65.7983 96.1873 66.0437 96.5497C66.1553 96.7127 66.3003 96.8408 66.4751 96.9342C66.6499 97.0294 66.8377 97.0806 67.0366 97.0861C67.8157 97.1117 68.3679 96.6303 68.803 95.942C69.0522 95.5466 69.266 95.0816 69.504 94.6789C69.5765 94.5525 69.6546 94.4299 69.742 94.3127C69.7625 94.4299 69.7848 94.5471 69.8127 94.6587C69.9726 95.3287 70.3779 95.704 70.932 95.5539C71.7334 95.3342 72.2559 94.6368 72.7412 93.8954C73.0555 93.4121 73.3418 92.8995 73.8141 92.6725C73.8364 92.7018 73.8587 92.7347 73.8755 92.7622C73.9629 92.905 74.0503 93.0643 74.1488 93.207C74.4556 93.6482 74.8591 93.9301 75.4392 93.7873C76.3633 93.5604 76.7631 92.9709 77.0402 92.2954C77.2261 91.8487 77.3209 91.3471 77.6352 91.003C77.6947 91.0103 77.8192 91.0268 77.8973 91.0378C78.1484 91.0945 78.3994 91.089 78.6485 91.0176C79.7493 90.6314 80.7441 89.9138 81.8802 89.6355C81.9471 89.6209 82.0103 89.5916 82.0661 89.5531C82.1219 89.5129 82.1684 89.4634 82.2055 89.4049C82.2409 89.3463 82.265 89.284 82.2762 89.2163C82.2855 89.1486 82.2836 89.0808 82.265 89.0149C82.2483 88.949 82.2204 88.8886 82.1777 88.8337C82.1368 88.7788 82.0865 88.733 82.0252 88.6982C81.9657 88.6635 81.9006 88.6415 81.8318 88.6323C81.763 88.6232 81.6961 88.6287 81.6291 88.647C80.4596 88.9344 79.4313 89.6593 78.299 90.0584C78.2395 90.0657 78.18 90.062 78.1223 90.0419C78.0108 90.0236 77.8992 90.0016 77.7932 89.9907C77.4697 89.9321 77.187 90.0145 76.9472 90.236C76.5939 90.6387 76.3447 91.0963 76.1978 91.6089C76.0119 92.1068 75.8557 92.6341 75.1882 92.7988C75.1492 92.808 75.1268 92.7787 75.1045 92.7549C75.0599 92.7073 75.0209 92.656 74.9855 92.6011C74.8591 92.4107 74.7494 92.1984 74.6341 92.0409C74.3589 91.6657 74.0224 91.5192 73.63 91.6492C72.8528 91.9018 72.347 92.6139 71.8692 93.348C71.568 93.8038 71.2946 94.2853 70.8465 94.4995ZM101.207 93.3077C101.164 93.2931 101.034 93.2473 100.959 93.2199C100.74 93.1283 100.513 93.1045 100.277 93.1485C99.7062 93.2784 99.245 93.7599 98.8471 94.1516C98.7783 94.2194 98.6221 94.3969 98.518 94.5159C98.3711 94.5763 98.2726 94.6825 98.2242 94.8345C98.174 94.9534 98.1684 95.0724 98.2112 95.1951C98.2558 95.3177 98.3339 95.4093 98.4492 95.4715C98.6035 95.5685 98.7635 95.5795 98.9308 95.5045C99.0182 95.4642 99.0963 95.4093 99.1632 95.3397C99.2766 95.2262 99.4775 94.9736 99.5797 94.8711C99.7378 94.7173 99.9033 94.5379 100.085 94.3841C100.204 94.2743 100.34 94.1937 100.496 94.1461C100.515 94.1498 100.578 94.1681 100.612 94.1809C100.671 94.2029 100.731 94.2267 100.79 94.2487C101.021 94.3439 101.257 94.3567 101.499 94.2871C102.674 93.9008 103.709 92.9855 104.959 92.5755C105.024 92.5535 105.082 92.5206 105.134 92.4766C105.186 92.4327 105.229 92.3796 105.258 92.3192C105.29 92.2588 105.307 92.1947 105.312 92.127C105.316 92.0592 105.309 91.9933 105.286 91.9293C105.266 91.8652 105.232 91.8085 105.186 91.7572C105.141 91.7059 105.087 91.6657 105.026 91.6345C104.965 91.6053 104.899 91.587 104.831 91.5833C104.764 91.5778 104.697 91.5851 104.63 91.6071C103.393 92.0135 102.367 92.916 101.207 93.3077ZM65.9768 95.2299C65.9489 95.2262 65.921 95.2207 65.8949 95.2116C65.8671 95.2042 65.8392 95.1933 65.8131 95.1804C65.8652 95.2061 65.921 95.2225 65.9768 95.2299ZM110.353 89.0424C110.266 89.0406 110.182 89.0607 110.104 89.101C110.028 89.1413 109.964 89.198 109.916 89.2712C109.868 89.3426 109.84 89.4213 109.831 89.5074C109.823 89.5934 109.838 89.6758 109.873 89.7563C109.937 89.9138 110.046 90.0254 110.206 90.0895C110.321 90.1389 110.44 90.1499 110.563 90.1225C110.744 90.073 110.894 89.9797 111.019 89.8424C111.104 89.7563 111.201 89.641 111.296 89.5367C111.331 89.4891 111.372 89.447 111.418 89.4122C112.006 89.1046 112.739 89.176 113.38 89.0717C113.447 89.0607 113.508 89.0351 113.566 89.0003C113.624 88.9637 113.67 88.9179 113.709 88.863C113.748 88.8081 113.776 88.7495 113.791 88.6836C113.806 88.6195 113.808 88.5536 113.797 88.4877C113.785 88.4218 113.761 88.3596 113.726 88.3028C113.691 88.2461 113.646 88.1985 113.59 88.16C113.536 88.1198 113.475 88.0923 113.41 88.0758C113.345 88.0594 113.278 88.0575 113.211 88.0667C112.462 88.1893 111.616 88.1546 110.931 88.5134C110.777 88.6049 110.639 88.7202 110.524 88.8557L110.353 89.0424ZM90.9001 84.9931C90.8406 85.0297 90.7904 85.0755 90.7495 85.1322C90.7086 85.1871 90.6807 85.2475 90.6658 85.3134C90.6509 85.3793 90.6472 85.4452 90.6602 85.5111C90.6714 85.5789 90.6937 85.6411 90.7309 85.6979C90.7681 85.7546 90.8127 85.804 90.8685 85.8425C90.9726 85.9157 91.0897 85.9468 91.2162 85.9377C91.3445 85.9285 91.4542 85.8809 91.5471 85.7949C91.6773 85.6869 92.0529 85.2677 92.382 84.9217C92.5215 84.7752 92.713 84.5977 92.7465 84.5684C93.0793 84.4128 93.3266 84.5244 93.5757 84.5647C94.0555 84.6434 94.5426 84.6563 95.2009 84.0082C95.2492 83.9606 95.2864 83.9057 95.3124 83.8435C95.3384 83.7812 95.3515 83.7153 95.3515 83.6494C95.3515 83.5817 95.3384 83.5158 95.3124 83.4535C95.2864 83.3913 95.2492 83.3364 95.2009 83.2888C95.1525 83.2394 95.0967 83.2027 95.0316 83.1771C94.9684 83.1515 94.9033 83.1387 94.8345 83.1387C94.7658 83.1387 94.6988 83.1515 94.6356 83.1771C94.5724 83.2027 94.5166 83.2394 94.4683 83.2888C94.3585 83.4096 94.2265 83.5011 94.0722 83.5579C93.8937 83.5908 93.7171 83.5798 93.5441 83.5231C93.0997 83.4133 92.6721 83.4609 92.2612 83.6641C92.0845 83.7757 91.9246 83.9075 91.7833 84.0613C91.4914 84.356 91.0023 84.8814 90.9001 84.9931ZM91.2125 84.9199C91.2534 84.9235 91.2924 84.9308 91.3315 84.9437C91.3705 84.9565 91.4095 84.9729 91.443 84.9949C91.3742 84.951 91.2961 84.9253 91.2143 84.9199H91.2125Z" fill="white"/>
<mask id="mask2_22426_2186" style="mask-type:luminance" maskUnits="userSpaceOnUse" x="0" y="0" width="141" height="170">
<path d="M0 0H140.491V170H0V0Z" fill="white"/>
</mask>
<g mask="url(#mask2_22426_2186)">
<path fill-rule="evenodd" clip-rule="evenodd" d="M45.3598 167.996C45.3321 167.963 45.1661 167.764 45.1458 167.744C45.0203 167.594 44.8635 167.543 44.6734 167.583C44.5609 167.602 44.4668 167.653 44.3893 167.736C44.2841 167.843 44.238 167.969 44.2509 168.118C44.2583 168.251 44.31 168.364 44.4041 168.458C44.5424 168.629 44.7011 168.779 44.8819 168.908C45.2602 169.092 45.6384 169.277 46.0166 169.461C47.0037 169.943 48.2196 169.788 49.3044 169.777C52.4945 169.747 55.4797 167.937 58.428 166.926C58.4908 166.902 58.548 166.869 58.5978 166.823C58.6495 166.779 58.6882 166.725 58.7177 166.664C58.7472 166.603 58.7638 166.539 58.7675 166.472C58.7712 166.404 58.762 166.34 58.7399 166.275C58.7177 166.212 58.6845 166.153 58.6402 166.103C58.5959 166.052 58.5424 166.013 58.4834 165.982C58.4225 165.952 58.3579 165.936 58.2915 165.93C58.2233 165.924 58.1587 165.934 58.0941 165.954C55.2472 166.932 52.3764 168.722 49.2952 168.749C48.3635 168.758 47.3155 168.952 46.4686 168.537L45.3598 167.996ZM45.2786 168.089C45.2786 168.139 45.2712 168.19 45.2565 168.238C45.2417 168.286 45.2196 168.33 45.1937 168.371C45.2528 168.286 45.2804 168.192 45.2786 168.089ZM60.8469 165.733C64.6771 163.753 68.9613 162.699 73.0535 161.343C79.0258 159.362 84.7546 156.664 90.7066 154.613C95.7011 152.893 100.419 150.316 105.312 148.358C110.441 146.305 115.758 144.847 120.889 142.794C127.234 140.253 133.447 137.485 139.906 135.227C139.969 135.203 140.028 135.17 140.077 135.124C140.129 135.079 140.17 135.026 140.199 134.963C140.229 134.902 140.245 134.838 140.249 134.77C140.253 134.701 140.244 134.635 140.22 134.572C140.197 134.508 140.164 134.448 140.118 134.399C140.074 134.347 140.02 134.308 139.958 134.279C139.897 134.249 139.832 134.233 139.764 134.227C139.696 134.223 139.629 134.234 139.565 134.257C133.092 136.52 126.865 139.294 120.506 141.84C115.375 143.893 110.059 145.353 104.93 147.404C100.054 149.356 95.3506 151.926 90.3727 153.642C84.4244 155.692 78.6974 158.388 72.7306 160.367C68.5886 161.742 64.2546 162.816 60.3764 164.821C60.3155 164.853 60.262 164.895 60.2196 164.947C60.1753 164.998 60.1421 165.057 60.1218 165.122C60.1015 165.186 60.0923 165.255 60.0996 165.321C60.1052 165.389 60.1236 165.454 60.155 165.515C60.1864 165.576 60.2269 165.627 60.2804 165.672C60.3321 165.716 60.3911 165.747 60.4557 165.77C60.5203 165.79 60.5886 165.797 60.655 165.792C60.7233 165.784 60.7878 165.766 60.8487 165.734L60.8469 165.733ZM18.0092 106.572C18.059 106.467 18.072 106.356 18.048 106.244C18.024 106.129 17.9668 106.035 17.8782 105.96C17.738 105.827 17.572 105.779 17.3819 105.819C17.1937 105.853 17.0646 105.958 16.9926 106.135C16.9447 106.255 16.928 106.38 16.9447 106.508C16.9945 106.832 17.0867 107.144 17.2232 107.443C17.4649 107.926 17.655 108.441 17.8635 108.941C18.4686 110.404 19.1236 111.832 19.762 113.279C21.6882 117.642 23.5258 122.044 25.5148 126.38C29.5166 135.105 32.5701 144.262 36.5424 152.995C38.3395 156.945 39.441 161.834 42.2768 165.234C42.3192 165.288 42.3709 165.329 42.4317 165.362C42.4926 165.393 42.5572 165.412 42.6236 165.417C42.6919 165.424 42.7583 165.417 42.8229 165.397C42.8893 165.377 42.9483 165.345 43 165.301C43.0517 165.257 43.0941 165.205 43.1255 165.146C43.1568 165.085 43.1771 165.02 43.1827 164.952C43.1882 164.886 43.1827 164.819 43.1624 164.753C43.1421 164.688 43.1089 164.629 43.0664 164.578C40.2878 161.246 39.2399 156.439 37.4797 152.568C33.5055 143.836 30.4539 134.679 26.4502 125.952C24.4631 121.62 22.6273 117.223 20.703 112.864C20.0683 111.424 19.4151 110.002 18.8137 108.546C18.5978 108.024 18.3967 107.487 18.1439 106.982C18.0904 106.847 18.0443 106.71 18.0092 106.572ZM3.80258 80.7197L15.6476 84.3341C16.8266 83.2603 17.9613 82.0721 19.0535 81.1607C21.107 79.4522 23.107 77.6754 25.0886 75.8747L8.38561 70.7787C7.05904 71.9835 5.73432 73.1828 4.36716 74.3433C3.58303 75.0094 2.84317 75.7621 1.97786 76.323C1.67528 76.5204 1.37085 76.7714 1.05351 76.9429C1.04428 76.9466 0.627306 77.2714 0.627306 77.2714L0 76.3968C0 76.3968 0.516606 76.0536 0.583026 76.0278C0.869004 75.8691 1.14207 75.6385 1.41697 75.4614C2.24539 74.9245 2.95018 74.1976 3.69926 73.561C6.06089 71.5555 8.30074 69.4319 10.6236 67.3784C17.8229 61.0149 25.7528 55.5666 33.024 49.2621C42.4299 41.1072 52.024 33.1939 61.69 25.3452C66.7269 21.2566 71.9391 17.2197 76.7528 12.8894C80.6365 9.39313 84.6974 5.63667 88.917 2.5518C89.8948 1.83594 90.9557 1.2197 91.8893 0.450327C91.9834 0.372836 92.238 0.0942383 92.238 0.0942383L92.9631 0.865456L92.9594 0.869146L100.862 9.30642L87.2159 5.14221C83.893 7.78058 80.6734 10.7418 77.5683 13.5389L93.1015 18.2769C94.3727 17.2345 95.6421 16.1994 96.9133 15.1736C98.2952 14.0536 99.6495 12.9079 101.028 11.7806C101.411 11.4669 102.214 10.7345 102.214 10.7345L102.895 11.4596C102.895 11.4596 102.061 12.2621 101.677 12.5758C100.301 13.7031 98.9428 14.8525 97.5591 15.9725C91.7472 20.6773 85.8856 25.5334 80.3469 30.5555C75.6568 34.8083 70.2546 38.5334 65.2841 42.4559C61.4576 45.478 58.0498 49.0352 54.2823 52.1385C48.5166 56.8894 42.7343 61.5905 37.0535 66.4503C31.6513 71.0703 26.5738 76.0832 21.1845 80.7031L22.3284 83.3618L22.3893 83.3156C23.0867 82.7584 24.0111 82.4134 24.8137 82.0352C27.1384 80.9393 29.4649 79.6514 31.8745 78.764C34.8635 77.6625 37.6753 75.954 40.6033 74.6883C44.7897 72.8765 49.0019 71.1644 53.1919 69.3507C64.9428 64.264 76.5886 59.0629 88.1255 53.5186C91.7196 51.7917 95.4705 50.395 98.9982 48.5297C103.526 46.1367 108.362 44.4079 113.138 42.5961C114.692 42.0075 116.319 41.4596 117.906 40.7751C118.105 40.6902 118.708 40.4263 118.708 40.4263V40.43L118.718 40.4245L119.079 41.2363L119.161 41.4134H119.159L125 54.5186L125.02 54.5075L125.472 55.5001C125.472 55.5001 124.688 55.8876 124.448 56.002C123.02 56.6791 121.541 57.2677 120.098 57.9153C114.572 60.3894 108.852 62.4042 103.268 64.7418C95.7602 67.8839 88.214 70.906 80.655 73.919C67.6458 79.1053 54.941 85.168 41.952 90.4448C37.9557 92.0684 34.1125 94.2584 30.0812 95.7455C27.3137 96.7658 24.1845 97.871 21.5738 99.2215C19.8819 100.096 18.0424 100.655 16.286 101.415C16.1144 101.489 15.2454 102.019 14.7731 102.148C14.548 102.225 14.3284 102.209 14.1162 102.1C14.0572 102.065 14.0074 102.019 13.9668 101.961C13.8967 101.936 13.8358 101.895 13.7823 101.843C13.452 101.45 13.2196 101.004 13.0867 100.508C12.8598 99.8083 12.703 99.0001 12.5387 98.55C11.7288 96.3433 11.0037 94.0149 9.89483 91.9374C9.86347 91.8765 9.84317 91.8138 9.83764 91.7455C9.83026 91.6773 9.83764 91.6108 9.85609 91.5463C9.87638 91.4799 9.90775 91.4208 9.95203 91.3691C9.99447 91.3156 10.0461 91.2732 10.107 91.2418C10.1236 91.2326 10.1402 91.2252 10.1568 91.2179L9.82472 90.3415C9.71587 90.3083 9.62731 90.2474 9.55904 90.157C7.57934 87.5186 5.6107 84.8673 3.65129 82.2012C2.84317 81.1053 1.85609 80.0389 1.16974 78.8636C1.13469 78.8046 1.11255 78.7418 1.10332 78.6736C1.0941 78.6053 1.09779 78.5389 1.11624 78.4725C1.13284 78.4079 1.16236 78.347 1.20295 78.2935C1.24539 78.2382 1.2952 78.1939 1.35424 78.1588C1.41328 78.1256 1.47601 78.1035 1.54428 78.0942C1.6107 78.085 1.67897 78.0887 1.74354 78.1072C1.80996 78.1238 1.87085 78.1533 1.92435 78.1939C1.97971 78.2363 2.02399 78.2861 2.0572 78.3452C2.58118 79.1791 3.16421 79.9706 3.80258 80.7197ZM10.4336 90.0721C10.3782 90.1846 10.2934 90.2658 10.179 90.3175C10.0627 90.3691 9.94465 90.3765 9.82472 90.3396L10.1568 91.2179C10.2786 91.1699 10.4004 91.168 10.524 91.2123C10.6476 91.2584 10.7399 91.3378 10.8026 91.454C11.9336 93.5739 12.6771 95.9466 13.5037 98.1976C13.6236 98.5223 13.7399 99.0315 13.8801 99.5555L15.5351 100.657C15.6974 100.567 15.8247 100.496 15.8782 100.472C17.6125 99.7215 19.4299 99.1736 21.1015 98.3083C23.1845 97.2787 25.3192 96.3747 27.5111 95.5961L15.7251 87.7548L10.4336 90.0721ZM38.214 76.9559C36.2399 77.9411 34.2768 78.9762 32.2306 79.7289C30.3321 80.43 28.4852 81.3821 26.6494 82.2898L39.0886 90.5684C39.9096 90.192 40.7343 89.8304 41.5646 89.4928C44.7435 88.2012 47.9041 86.8636 51.0572 85.502L38.214 76.9559ZM61.6458 66.7861C58.9686 67.9632 56.2878 69.1348 53.6015 70.2953C52.3303 70.8452 51.059 71.3876 49.786 71.9227L62.6033 80.4522C66.5554 78.7179 70.5111 76.9946 74.4889 75.3304L61.6458 66.7861ZM84.6384 56.3212C80.8026 58.1367 76.9557 59.919 73.0959 61.6699L86.3948 70.5204C90.4576 68.8913 94.5111 67.2474 98.5591 65.585L84.6384 56.3212ZM28.3672 54.454C24.9188 57.2086 21.4022 59.871 17.9502 62.6145L34.2011 67.5721C34.9244 66.9319 35.6513 66.299 36.3838 65.6699C38.9225 63.5001 41.476 61.3562 44.0461 59.2363L28.3672 54.454ZM107.637 45.8618C104.865 46.9356 102.111 48.0481 99.4797 49.4411C98.334 50.0463 97.1642 50.6035 95.9852 51.1367L110.454 60.7658C113.55 59.5555 116.644 58.3359 119.677 56.9762C120.611 56.5573 121.563 56.1643 122.502 55.7548L107.637 45.8618ZM47.9022 37.9928C44.5904 40.7455 41.2971 43.5204 38.0221 46.3175L53.8653 51.1514C57.1162 48.4466 60.1107 45.4171 63.3524 42.7049L47.9022 37.9928ZM67.8948 21.6699C66.0387 23.1643 64.1771 24.6496 62.3395 26.1422C60.7971 27.395 59.2565 28.6496 57.7196 29.9042L73.6587 34.7677C75.7251 33.1662 77.7491 31.5241 79.655 29.7972C80.9078 28.6625 82.1734 27.5352 83.4557 26.4171L67.8948 21.6699Z" fill="#334865"/>
</g>
<mask id="mask3_22426_2186" style="mask-type:luminance" maskUnits="userSpaceOnUse" x="70" y="78" width="72" height="72">
<path d="M70 78H141.76V149.826H70V78Z" fill="white"/>
</mask>
<g mask="url(#mask3_22426_2186)">
<path d="M141.638 141.563L131.227 131.151C135.144 125.646 137.472 118.935 137.472 111.667C137.472 93.0736 122.398 78 103.806 78C85.2136 78 70.1387 93.0736 70.1387 111.667C70.1387 130.259 85.2136 145.332 103.806 145.332C111.075 145.332 117.789 143.004 123.29 139.085L133.704 149.496L141.638 141.563Z" fill="#9AAAB4"/>
</g>
<path d="M126.25 111.667C126.25 112.034 126.242 112.401 126.223 112.768C126.204 113.135 126.178 113.501 126.142 113.866C126.106 114.232 126.061 114.596 126.008 114.959C125.953 115.324 125.891 115.685 125.819 116.046C125.747 116.406 125.667 116.764 125.577 117.12C125.488 117.476 125.391 117.83 125.283 118.181C125.177 118.534 125.062 118.882 124.939 119.228C124.815 119.573 124.682 119.916 124.541 120.256C124.401 120.595 124.252 120.931 124.095 121.262C123.939 121.595 123.772 121.923 123.6 122.246C123.427 122.571 123.246 122.89 123.057 123.205C122.868 123.52 122.671 123.831 122.468 124.136C122.263 124.441 122.052 124.742 121.834 125.037C121.614 125.331 121.388 125.621 121.156 125.905C120.923 126.189 120.682 126.467 120.436 126.739C120.189 127.012 119.936 127.278 119.676 127.537C119.416 127.796 119.15 128.05 118.878 128.296C118.606 128.544 118.329 128.783 118.044 129.016C117.761 129.25 117.471 129.476 117.176 129.694C116.88 129.913 116.58 130.125 116.275 130.328C115.97 130.533 115.66 130.728 115.345 130.917C115.03 131.106 114.71 131.288 114.386 131.461C114.062 131.634 113.734 131.799 113.402 131.956C113.07 132.113 112.734 132.261 112.395 132.402C112.055 132.543 111.713 132.675 111.368 132.799C111.02 132.922 110.672 133.038 110.321 133.144C109.97 133.251 109.615 133.349 109.259 133.438C108.902 133.527 108.545 133.608 108.184 133.679C107.824 133.751 107.462 133.815 107.099 133.868C106.736 133.922 106.372 133.966 106.006 134.003C105.64 134.039 105.273 134.066 104.906 134.083C104.539 134.102 104.172 134.111 103.805 134.111C103.438 134.111 103.071 134.102 102.704 134.083C102.337 134.066 101.972 134.039 101.606 134.003C101.24 133.966 100.876 133.922 100.512 133.868C100.149 133.815 99.7871 133.751 99.4267 133.679C99.0664 133.608 98.7087 133.527 98.3523 133.438C97.996 133.349 97.6423 133.251 97.2899 133.144C96.9389 133.038 96.5905 132.922 96.2448 132.799C95.899 132.675 95.556 132.543 95.2169 132.402C94.8778 132.261 94.5414 132.113 94.209 131.956C93.8779 131.799 93.5494 131.634 93.225 131.461C92.9019 131.288 92.5814 131.106 92.2676 130.917C91.9525 130.728 91.6413 130.533 91.3368 130.328C91.031 130.125 90.7305 129.913 90.4353 129.694C90.1401 129.476 89.8515 129.25 89.567 129.016C89.2837 128.783 89.0058 128.544 88.7332 128.296C88.4606 128.05 88.1947 127.796 87.9354 127.537C87.6748 127.278 87.4221 127.012 87.1761 126.739C86.9288 126.467 86.6895 126.189 86.4554 125.905C86.2227 125.621 85.9967 125.331 85.7786 125.037C85.5592 124.742 85.3478 124.441 85.1443 124.136C84.9396 123.831 84.7428 123.52 84.554 123.205C84.3651 122.89 84.1843 122.571 84.0114 122.246C83.8386 121.923 83.6737 121.595 83.5168 121.262C83.3599 120.931 83.211 120.595 83.07 120.256C82.9291 119.916 82.7974 119.573 82.6738 119.228C82.5501 118.882 82.4344 118.534 82.328 118.181C82.2216 117.83 82.1233 117.476 82.0342 117.12C81.9451 116.764 81.864 116.406 81.7922 116.046C81.7203 115.685 81.6579 115.324 81.6047 114.959C81.5501 114.596 81.5049 114.232 81.469 113.866C81.4331 113.501 81.4065 113.135 81.3879 112.768C81.3706 112.401 81.3613 112.034 81.3613 111.667C81.3613 111.299 81.3706 110.932 81.3879 110.565C81.4065 110.199 81.4331 109.832 81.469 109.466C81.5049 109.101 81.5501 108.736 81.6047 108.373C81.6579 108.01 81.7203 107.649 81.7922 107.288C81.864 106.928 81.9451 106.569 82.0342 106.212C82.1233 105.856 82.2216 105.502 82.328 105.151C82.4344 104.8 82.5501 104.451 82.6738 104.105C82.7974 103.759 82.9291 103.417 83.07 103.077C83.211 102.738 83.3599 102.403 83.5168 102.07C83.6737 101.738 83.8386 101.411 84.0114 101.086C84.1843 100.762 84.3651 100.443 84.554 100.128C84.7428 99.8126 84.9396 99.5028 85.1443 99.1969C85.3478 98.8911 85.5592 98.5919 85.7786 98.2967C85.9967 98.0015 86.2227 97.7116 86.4554 97.4284C86.6895 97.1439 86.9288 96.8659 87.1761 96.5934C87.4221 96.3221 87.6748 96.0561 87.9354 95.7955C88.1947 95.5362 88.4606 95.2836 88.7332 95.0363C89.0058 94.7903 89.2837 94.5496 89.567 94.3169C89.8515 94.0842 90.1401 93.8581 90.4353 93.6387C90.7305 93.4207 91.031 93.2092 91.3368 93.0045C91.6413 92.801 91.9525 92.6042 92.2676 92.4154C92.5814 92.2266 92.9019 92.0457 93.225 91.8729C93.5494 91.6987 93.8779 91.5338 94.209 91.3769C94.5414 91.22 94.8778 91.0711 95.2169 90.9301C95.556 90.7905 95.899 90.6575 96.2448 90.5339C96.5905 90.4102 96.9389 90.2959 97.2899 90.1881C97.6423 90.0818 97.996 89.9847 98.3523 89.8943C98.7087 89.8052 99.0664 89.7254 99.4267 89.6536C99.7871 89.5818 100.149 89.5193 100.512 89.4648C100.876 89.4116 101.24 89.3664 101.606 89.3305C101.972 89.2946 102.337 89.2667 102.704 89.2494C103.071 89.2308 103.438 89.2228 103.805 89.2228C104.172 89.2228 104.539 89.2308 104.906 89.2494C105.273 89.2667 105.64 89.2946 106.006 89.3305C106.372 89.3664 106.736 89.4116 107.099 89.4648C107.462 89.5193 107.824 89.5818 108.184 89.6536C108.545 89.7254 108.902 89.8052 109.259 89.8943C109.615 89.9847 109.97 90.0818 110.321 90.1881C110.672 90.2959 111.02 90.4102 111.368 90.5339C111.713 90.6575 112.055 90.7905 112.395 90.9301C112.734 91.0711 113.07 91.22 113.402 91.3769C113.734 91.5338 114.062 91.6987 114.386 91.8729C114.71 92.0457 115.03 92.2266 115.345 92.4154C115.66 92.6042 115.97 92.801 116.275 93.0045C116.58 93.2092 116.88 93.4207 117.176 93.6387C117.471 93.8581 117.761 94.0842 118.044 94.3169C118.329 94.5496 118.606 94.7903 118.878 95.0363C119.15 95.2836 119.416 95.5362 119.676 95.7955C119.936 96.0561 120.189 96.3221 120.436 96.5934C120.682 96.8659 120.923 97.1439 121.156 97.4284C121.388 97.7116 121.614 98.0015 121.834 98.2967C122.052 98.5919 122.263 98.8911 122.468 99.1969C122.671 99.5028 122.868 99.8126 123.057 100.128C123.246 100.443 123.427 100.762 123.6 101.086C123.772 101.411 123.939 101.738 124.095 102.07C124.252 102.403 124.401 102.738 124.541 103.077C124.682 103.417 124.815 103.759 124.939 104.105C125.062 104.451 125.177 104.8 125.283 105.151C125.391 105.502 125.488 105.856 125.577 106.212C125.667 106.569 125.747 106.928 125.819 107.288C125.891 107.649 125.953 108.01 126.008 108.373C126.061 108.736 126.106 109.101 126.142 109.466C126.178 109.832 126.204 110.199 126.223 110.565C126.242 110.932 126.25 111.299 126.25 111.667Z" fill="#BDDDF4" fill-opacity="0.5"/>
<path d="M167.571 159.844L143.765 136.04C141.573 133.85 138.022 133.85 135.832 136.04L127.897 143.975C125.706 146.166 125.706 149.718 127.897 151.909L151.699 175.711C156.082 180.096 163.191 180.096 167.573 175.711C171.952 171.335 171.949 164.225 167.571 159.844Z" fill="#67757F"/>
</g>
</svg>
